<svg xmlns="http://www.w3.org/2000/svg" version="1.1" xmlns:xlink="http://www.w3.org/1999/xlink" xmlns:svgjs="http://svgjs.com/svgjs" width="1800" height="1200" preserveAspectRatio="none" viewBox="0 0 1800 1200">
    <g mask="url(&quot;#SvgjsMask1057&quot;)" fill="none">
        <rect width="1800" height="1200" x="0" y="0" fill="#0e2a47"></rect>
        <path d="M55.44 -41.11L120.39 -3.61L120.39 71.39L55.44 108.89L-9.51 71.39L-9.51 -3.61zM120.39 71.39L185.35 108.89L185.35 183.89L120.39 221.39L55.44 183.89L55.44 108.89zM120.39 521.39L185.35 558.89L185.35 633.89L120.39 671.39L55.44 633.89L55.44 558.89zM55.44 858.89L120.39 896.39L120.39 971.39L55.44 1008.89L-9.51 971.39L-9.51 896.39zM120.39 971.39L185.35 1008.89L185.35 1083.89L120.39 1121.39L55.44 1083.89L55.44 1008.89zM55.44 1083.89L120.39 1121.39L120.39 1196.39L55.44 1233.89L-9.51 1196.39L-9.51 1121.39zM185.35 183.89L250.3 221.39L250.3 296.39L185.35 333.89L120.39 296.39L120.39 221.39zM250.3 296.39L315.25 333.89L315.25 408.89L250.3 446.39L185.35 408.89L185.35 333.89zM250.3 521.39L315.25 558.89L315.25 633.89L250.3 671.39L185.35 633.89L185.35 558.89zM250.3 746.39L315.25 783.89L315.25 858.89L250.3 896.39L185.35 858.89L185.35 783.89zM250.3 971.39L315.25 1008.89L315.25 1083.89L250.3 1121.39L185.35 1083.89L185.35 1008.89zM185.35 1083.89L250.3 1121.39L250.3 1196.39L185.35 1233.89L120.39 1196.39L120.39 1121.39zM250.3 1196.39L315.25 1233.89L315.25 1308.89L250.3 1346.39L185.35 1308.89L185.35 1233.89zM315.25 -41.11L380.21 -3.61L380.21 71.39L315.25 108.89L250.3 71.39L250.3 -3.61zM380.21 296.39L445.16 333.89L445.16 408.89L380.21 446.39L315.25 408.89L315.25 333.89zM380.21 746.39L445.16 783.89L445.16 858.89L380.21 896.39L315.25 858.89L315.25 783.89zM315.25 858.89L380.21 896.39L380.21 971.39L315.25 1008.89L250.3 971.39L250.3 896.39zM380.21 971.39L445.16 1008.89L445.16 1083.89L380.21 1121.39L315.25 1083.89L315.25 1008.89zM510.12 71.39L575.07 108.89L575.07 183.89L510.12 221.39L445.16 183.89L445.16 108.89zM510.12 296.39L575.07 333.89L575.07 408.89L510.12 446.39L445.16 408.89L445.16 333.89zM445.16 408.89L510.12 446.39L510.12 521.39L445.16 558.89L380.21 521.39L380.21 446.39zM510.12 521.39L575.07 558.89L575.07 633.89L510.12 671.39L445.16 633.89L445.16 558.89zM445.16 633.89L510.12 671.39L510.12 746.39L445.16 783.89L380.21 746.39L380.21 671.39zM510.12 746.39L575.07 783.89L575.07 858.89L510.12 896.39L445.16 858.89L445.16 783.89zM445.16 858.89L510.12 896.39L510.12 971.39L445.16 1008.89L380.21 971.39L380.21 896.39zM575.07 -41.11L640.02 -3.61L640.02 71.39L575.07 108.89L510.12 71.39L510.12 -3.61zM640.02 71.39L704.98 108.89L704.98 183.89L640.02 221.39L575.07 183.89L575.07 108.89zM640.02 296.39L704.98 333.89L704.98 408.89L640.02 446.39L575.07 408.89L575.07 333.89zM640.02 521.39L704.98 558.89L704.98 633.89L640.02 671.39L575.07 633.89L575.07 558.89zM640.02 746.39L704.98 783.89L704.98 858.89L640.02 896.39L575.07 858.89L575.07 783.89zM640.02 1196.39L704.98 1233.89L704.98 1308.89L640.02 1346.39L575.07 1308.89L575.07 1233.89zM704.98 -41.11L769.93 -3.61L769.93 71.39L704.98 108.89L640.02 71.39L640.02 -3.61zM769.93 296.39L834.88 333.89L834.88 408.89L769.93 446.39L704.98 408.89L704.98 333.89zM769.93 521.39L834.88 558.89L834.88 633.89L769.93 671.39L704.98 633.89L704.98 558.89zM704.98 633.89L769.93 671.39L769.93 746.39L704.98 783.89L640.02 746.39L640.02 671.39zM769.93 746.39L834.88 783.89L834.88 858.89L769.93 896.39L704.98 858.89L704.98 783.89zM704.98 858.89L769.93 896.39L769.93 971.39L704.98 1008.89L640.02 971.39L640.02 896.39zM704.98 1083.89L769.93 1121.39L769.93 1196.39L704.98 1233.89L640.02 1196.39L640.02 1121.39zM769.93 1196.39L834.88 1233.89L834.88 1308.89L769.93 1346.39L704.98 1308.89L704.98 1233.89zM834.88 408.89L899.84 446.39L899.84 521.39L834.88 558.89L769.93 521.39L769.93 446.39zM899.84 521.39L964.79 558.89L964.79 633.89L899.84 671.39L834.88 633.89L834.88 558.89zM834.88 633.89L899.84 671.39L899.84 746.39L834.88 783.89L769.93 746.39L769.93 671.39zM899.84 746.39L964.79 783.89L964.79 858.89L899.84 896.39L834.88 858.89L834.88 783.89zM834.88 858.89L899.84 896.39L899.84 971.39L834.88 1008.89L769.93 971.39L769.93 896.39zM834.88 1083.89L899.84 1121.39L899.84 1196.39L834.88 1233.89L769.93 1196.39L769.93 1121.39zM899.84 1196.39L964.79 1233.89L964.79 1308.89L899.84 1346.39L834.88 1308.89L834.88 1233.89zM964.79 -41.11L1029.75 -3.61L1029.75 71.39L964.79 108.89L899.84 71.39L899.84 -3.61zM1029.75 71.39L1094.7 108.89L1094.7 183.89L1029.75 221.39L964.79 183.89L964.79 108.89zM964.79 633.89L1029.75 671.39L1029.75 746.39L964.79 783.89L899.84 746.39L899.84 671.39zM1029.75 971.39L1094.7 1008.89L1094.7 1083.89L1029.75 1121.39L964.79 1083.89L964.79 1008.89zM1094.7 183.89L1159.65 221.39L1159.65 296.39L1094.7 333.89L1029.75 296.39L1029.75 221.39zM1159.65 296.39L1224.61 333.89L1224.61 408.89L1159.65 446.39L1094.7 408.89L1094.7 333.89zM1094.7 408.89L1159.65 446.39L1159.65 521.39L1094.7 558.89L1029.75 521.39L1029.75 446.39zM1159.65 521.39L1224.61 558.89L1224.61 633.89L1159.65 671.39L1094.7 633.89L1094.7 558.89zM1094.7 633.89L1159.65 671.39L1159.65 746.39L1094.7 783.89L1029.75 746.39L1029.75 671.39zM1159.65 746.39L1224.61 783.89L1224.61 858.89L1159.65 896.39L1094.7 858.89L1094.7 783.89zM1094.7 1083.89L1159.65 1121.39L1159.65 1196.39L1094.7 1233.89L1029.75 1196.39L1029.75 1121.39zM1224.61 -41.11L1289.56 -3.61L1289.56 71.39L1224.61 108.89L1159.65 71.39L1159.65 -3.61zM1224.61 408.89L1289.56 446.39L1289.56 521.39L1224.61 558.89L1159.65 521.39L1159.65 446.39zM1289.56 521.39L1354.51 558.89L1354.51 633.89L1289.56 671.39L1224.61 633.89L1224.61 558.89zM1224.61 633.89L1289.56 671.39L1289.56 746.39L1224.61 783.89L1159.65 746.39L1159.65 671.39zM1224.61 858.89L1289.56 896.39L1289.56 971.39L1224.61 1008.89L1159.65 971.39L1159.65 896.39zM1289.56 971.39L1354.51 1008.89L1354.51 1083.89L1289.56 1121.39L1224.61 1083.89L1224.61 1008.89zM1289.56 1196.39L1354.51 1233.89L1354.51 1308.89L1289.56 1346.39L1224.61 1308.89L1224.61 1233.89zM1419.47 71.39L1484.42 108.89L1484.42 183.89L1419.47 221.39L1354.52 183.89L1354.52 108.89zM1354.52 183.89L1419.47 221.39L1419.47 296.39L1354.52 333.89L1289.56 296.39L1289.56 221.39zM1419.47 296.39L1484.42 333.89L1484.42 408.89L1419.47 446.39L1354.52 408.89L1354.52 333.89zM1354.52 408.89L1419.47 446.39L1419.47 521.39L1354.52 558.89L1289.56 521.39L1289.56 446.39zM1354.52 633.89L1419.47 671.39L1419.47 746.39L1354.52 783.89L1289.56 746.39L1289.56 671.39zM1419.47 746.39L1484.42 783.89L1484.42 858.89L1419.47 896.39L1354.52 858.89L1354.52 783.89zM1354.52 858.89L1419.47 896.39L1419.47 971.39L1354.52 1008.89L1289.56 971.39L1289.56 896.39zM1419.47 971.39L1484.42 1008.89L1484.42 1083.89L1419.47 1121.39L1354.52 1083.89L1354.52 1008.89zM1549.38 71.39L1614.33 108.89L1614.33 183.89L1549.38 221.39L1484.42 183.89L1484.42 108.89zM1549.38 521.39L1614.33 558.89L1614.33 633.89L1549.38 671.39L1484.42 633.89L1484.42 558.89zM1549.38 746.39L1614.33 783.89L1614.33 858.89L1549.38 896.39L1484.42 858.89L1484.42 783.89zM1549.38 971.39L1614.33 1008.89L1614.33 1083.89L1549.38 1121.39L1484.42 1083.89L1484.42 1008.89zM1549.38 1196.39L1614.33 1233.89L1614.33 1308.89L1549.38 1346.39L1484.42 1308.89L1484.42 1233.89zM1614.33 -41.11L1679.28 -3.61L1679.28 71.39L1614.33 108.89L1549.38 71.39L1549.38 -3.61zM1614.33 408.89L1679.28 446.39L1679.28 521.39L1614.33 558.89L1549.38 521.39L1549.38 446.39zM1614.33 633.89L1679.28 671.39L1679.28 746.39L1614.33 783.89L1549.38 746.39L1549.38 671.39zM1679.28 971.39L1744.24 1008.89L1744.24 1083.89L1679.28 1121.39L1614.33 1083.89L1614.33 1008.89zM1614.33 1083.89L1679.28 1121.39L1679.28 1196.39L1614.33 1233.89L1549.38 1196.39L1549.38 1121.39zM1744.24 183.89L1809.19 221.39L1809.19 296.39L1744.24 333.89L1679.28 296.39L1679.28 221.39zM1809.19 296.39L1874.14 333.89L1874.14 408.89L1809.19 446.39L1744.24 408.89L1744.24 333.89zM1809.19 521.39L1874.14 558.89L1874.14 633.89L1809.19 671.39L1744.24 633.89L1744.24 558.89zM1744.24 633.89L1809.19 671.39L1809.19 746.39L1744.24 783.89L1679.28 746.39L1679.28 671.39zM1744.24 858.89L1809.19 896.39L1809.19 971.39L1744.24 1008.89L1679.28 971.39L1679.28 896.39z" stroke="#03305d" stroke-width="2"></path>
        <path d="M47.94 -41.11 a7.5 7.5 0 1 0 15 0 a7.5 7.5 0 1 0 -15 0zM112.89 -3.61 a7.5 7.5 0 1 0 15 0 a7.5 7.5 0 1 0 -15 0zM112.89 71.39 a7.5 7.5 0 1 0 15 0 a7.5 7.5 0 1 0 -15 0zM47.94 108.89 a7.5 7.5 0 1 0 15 0 a7.5 7.5 0 1 0 -15 0zM-17.01 71.39 a7.5 7.5 0 1 0 15 0 a7.5 7.5 0 1 0 -15 0zM-17.01 -3.61 a7.5 7.5 0 1 0 15 0 a7.5 7.5 0 1 0 -15 0zM177.85 108.89 a7.5 7.5 0 1 0 15 0 a7.5 7.5 0 1 0 -15 0zM177.85 183.89 a7.5 7.5 0 1 0 15 0 a7.5 7.5 0 1 0 -15 0zM112.89 221.39 a7.5 7.5 0 1 0 15 0 a7.5 7.5 0 1 0 -15 0zM47.94 183.89 a7.5 7.5 0 1 0 15 0 a7.5 7.5 0 1 0 -15 0zM112.89 521.39 a7.5 7.5 0 1 0 15 0 a7.5 7.5 0 1 0 -15 0zM177.85 558.89 a7.5 7.5 0 1 0 15 0 a7.5 7.5 0 1 0 -15 0zM177.85 633.89 a7.5 7.5 0 1 0 15 0 a7.5 7.5 0 1 0 -15 0zM112.89 671.39 a7.5 7.5 0 1 0 15 0 a7.5 7.5 0 1 0 -15 0zM47.94 633.89 a7.5 7.5 0 1 0 15 0 a7.5 7.5 0 1 0 -15 0zM47.94 558.89 a7.5 7.5 0 1 0 15 0 a7.5 7.5 0 1 0 -15 0zM47.94 858.89 a7.5 7.5 0 1 0 15 0 a7.5 7.5 0 1 0 -15 0zM112.89 896.39 a7.5 7.5 0 1 0 15 0 a7.5 7.5 0 1 0 -15 0zM112.89 971.39 a7.5 7.5 0 1 0 15 0 a7.5 7.5 0 1 0 -15 0zM47.94 1008.89 a7.5 7.5 0 1 0 15 0 a7.5 7.5 0 1 0 -15 0zM-17.01 971.39 a7.5 7.5 0 1 0 15 0 a7.5 7.5 0 1 0 -15 0zM-17.01 896.39 a7.5 7.5 0 1 0 15 0 a7.5 7.5 0 1 0 -15 0zM177.85 1008.89 a7.5 7.5 0 1 0 15 0 a7.5 7.5 0 1 0 -15 0zM177.85 1083.89 a7.5 7.5 0 1 0 15 0 a7.5 7.5 0 1 0 -15 0zM112.89 1121.39 a7.5 7.5 0 1 0 15 0 a7.5 7.5 0 1 0 -15 0zM47.94 1083.89 a7.5 7.5 0 1 0 15 0 a7.5 7.5 0 1 0 -15 0zM112.89 1196.39 a7.5 7.5 0 1 0 15 0 a7.5 7.5 0 1 0 -15 0zM47.94 1233.89 a7.5 7.5 0 1 0 15 0 a7.5 7.5 0 1 0 -15 0zM-17.01 1196.39 a7.5 7.5 0 1 0 15 0 a7.5 7.5 0 1 0 -15 0zM-17.01 1121.39 a7.5 7.5 0 1 0 15 0 a7.5 7.5 0 1 0 -15 0zM242.8 221.39 a7.5 7.5 0 1 0 15 0 a7.5 7.5 0 1 0 -15 0zM242.8 296.39 a7.5 7.5 0 1 0 15 0 a7.5 7.5 0 1 0 -15 0zM177.85 333.89 a7.5 7.5 0 1 0 15 0 a7.5 7.5 0 1 0 -15 0zM112.89 296.39 a7.5 7.5 0 1 0 15 0 a7.5 7.5 0 1 0 -15 0zM307.75 333.89 a7.5 7.5 0 1 0 15 0 a7.5 7.5 0 1 0 -15 0zM307.75 408.89 a7.5 7.5 0 1 0 15 0 a7.5 7.5 0 1 0 -15 0zM242.8 446.39 a7.5 7.5 0 1 0 15 0 a7.5 7.5 0 1 0 -15 0zM177.85 408.89 a7.5 7.5 0 1 0 15 0 a7.5 7.5 0 1 0 -15 0zM242.8 521.39 a7.5 7.5 0 1 0 15 0 a7.5 7.5 0 1 0 -15 0zM307.75 558.89 a7.5 7.5 0 1 0 15 0 a7.5 7.5 0 1 0 -15 0zM307.75 633.89 a7.5 7.5 0 1 0 15 0 a7.5 7.5 0 1 0 -15 0zM242.8 671.39 a7.5 7.5 0 1 0 15 0 a7.5 7.5 0 1 0 -15 0zM242.8 746.39 a7.5 7.5 0 1 0 15 0 a7.5 7.5 0 1 0 -15 0zM307.75 783.89 a7.5 7.5 0 1 0 15 0 a7.5 7.5 0 1 0 -15 0zM307.75 858.89 a7.5 7.5 0 1 0 15 0 a7.5 7.5 0 1 0 -15 0zM242.8 896.39 a7.5 7.5 0 1 0 15 0 a7.5 7.5 0 1 0 -15 0zM177.85 858.89 a7.5 7.5 0 1 0 15 0 a7.5 7.5 0 1 0 -15 0zM177.85 783.89 a7.5 7.5 0 1 0 15 0 a7.5 7.5 0 1 0 -15 0zM242.8 971.39 a7.5 7.5 0 1 0 15 0 a7.5 7.5 0 1 0 -15 0zM307.75 1008.89 a7.5 7.5 0 1 0 15 0 a7.5 7.5 0 1 0 -15 0zM307.75 1083.89 a7.5 7.5 0 1 0 15 0 a7.5 7.5 0 1 0 -15 0zM242.8 1121.39 a7.5 7.5 0 1 0 15 0 a7.5 7.5 0 1 0 -15 0zM242.8 1196.39 a7.5 7.5 0 1 0 15 0 a7.5 7.5 0 1 0 -15 0zM177.85 1233.89 a7.5 7.5 0 1 0 15 0 a7.5 7.5 0 1 0 -15 0zM307.75 1233.89 a7.5 7.5 0 1 0 15 0 a7.5 7.5 0 1 0 -15 0zM307.75 1308.89 a7.5 7.5 0 1 0 15 0 a7.5 7.5 0 1 0 -15 0zM242.8 1346.39 a7.5 7.5 0 1 0 15 0 a7.5 7.5 0 1 0 -15 0zM177.85 1308.89 a7.5 7.5 0 1 0 15 0 a7.5 7.5 0 1 0 -15 0zM307.75 -41.11 a7.5 7.5 0 1 0 15 0 a7.5 7.5 0 1 0 -15 0zM372.71 -3.61 a7.5 7.5 0 1 0 15 0 a7.5 7.5 0 1 0 -15 0zM372.71 71.39 a7.5 7.5 0 1 0 15 0 a7.5 7.5 0 1 0 -15 0zM307.75 108.89 a7.5 7.5 0 1 0 15 0 a7.5 7.5 0 1 0 -15 0zM242.8 71.39 a7.5 7.5 0 1 0 15 0 a7.5 7.5 0 1 0 -15 0zM242.8 -3.61 a7.5 7.5 0 1 0 15 0 a7.5 7.5 0 1 0 -15 0zM372.71 296.39 a7.5 7.5 0 1 0 15 0 a7.5 7.5 0 1 0 -15 0zM437.66 333.89 a7.5 7.5 0 1 0 15 0 a7.5 7.5 0 1 0 -15 0zM437.66 408.89 a7.5 7.5 0 1 0 15 0 a7.5 7.5 0 1 0 -15 0zM372.71 446.39 a7.5 7.5 0 1 0 15 0 a7.5 7.5 0 1 0 -15 0zM372.71 746.39 a7.5 7.5 0 1 0 15 0 a7.5 7.5 0 1 0 -15 0zM437.66 783.89 a7.5 7.5 0 1 0 15 0 a7.5 7.5 0 1 0 -15 0zM437.66 858.89 a7.5 7.5 0 1 0 15 0 a7.5 7.5 0 1 0 -15 0zM372.71 896.39 a7.5 7.5 0 1 0 15 0 a7.5 7.5 0 1 0 -15 0zM372.71 971.39 a7.5 7.5 0 1 0 15 0 a7.5 7.5 0 1 0 -15 0zM437.66 1008.89 a7.5 7.5 0 1 0 15 0 a7.5 7.5 0 1 0 -15 0zM437.66 1083.89 a7.5 7.5 0 1 0 15 0 a7.5 7.5 0 1 0 -15 0zM372.71 1121.39 a7.5 7.5 0 1 0 15 0 a7.5 7.5 0 1 0 -15 0zM502.62 71.39 a7.5 7.5 0 1 0 15 0 a7.5 7.5 0 1 0 -15 0zM567.57 108.89 a7.5 7.5 0 1 0 15 0 a7.5 7.5 0 1 0 -15 0zM567.57 183.89 a7.5 7.5 0 1 0 15 0 a7.5 7.5 0 1 0 -15 0zM502.62 221.39 a7.5 7.5 0 1 0 15 0 a7.5 7.5 0 1 0 -15 0zM437.66 183.89 a7.5 7.5 0 1 0 15 0 a7.5 7.5 0 1 0 -15 0zM437.66 108.89 a7.5 7.5 0 1 0 15 0 a7.5 7.5 0 1 0 -15 0zM502.62 296.39 a7.5 7.5 0 1 0 15 0 a7.5 7.5 0 1 0 -15 0zM567.57 333.89 a7.5 7.5 0 1 0 15 0 a7.5 7.5 0 1 0 -15 0zM567.57 408.89 a7.5 7.5 0 1 0 15 0 a7.5 7.5 0 1 0 -15 0zM502.62 446.39 a7.5 7.5 0 1 0 15 0 a7.5 7.5 0 1 0 -15 0zM502.62 521.39 a7.5 7.5 0 1 0 15 0 a7.5 7.5 0 1 0 -15 0zM437.66 558.89 a7.5 7.5 0 1 0 15 0 a7.5 7.5 0 1 0 -15 0zM372.71 521.39 a7.5 7.5 0 1 0 15 0 a7.5 7.5 0 1 0 -15 0zM567.57 558.89 a7.5 7.5 0 1 0 15 0 a7.5 7.5 0 1 0 -15 0zM567.57 633.89 a7.5 7.5 0 1 0 15 0 a7.5 7.5 0 1 0 -15 0zM502.62 671.39 a7.5 7.5 0 1 0 15 0 a7.5 7.5 0 1 0 -15 0zM437.66 633.89 a7.5 7.5 0 1 0 15 0 a7.5 7.5 0 1 0 -15 0zM502.62 746.39 a7.5 7.5 0 1 0 15 0 a7.5 7.5 0 1 0 -15 0zM372.71 671.39 a7.5 7.5 0 1 0 15 0 a7.5 7.5 0 1 0 -15 0zM567.57 783.89 a7.5 7.5 0 1 0 15 0 a7.5 7.5 0 1 0 -15 0zM567.57 858.89 a7.5 7.5 0 1 0 15 0 a7.5 7.5 0 1 0 -15 0zM502.62 896.39 a7.5 7.5 0 1 0 15 0 a7.5 7.5 0 1 0 -15 0zM502.62 971.39 a7.5 7.5 0 1 0 15 0 a7.5 7.5 0 1 0 -15 0zM567.57 -41.11 a7.5 7.5 0 1 0 15 0 a7.5 7.5 0 1 0 -15 0zM632.52 -3.61 a7.5 7.5 0 1 0 15 0 a7.5 7.5 0 1 0 -15 0zM632.52 71.39 a7.5 7.5 0 1 0 15 0 a7.5 7.5 0 1 0 -15 0zM502.62 -3.61 a7.5 7.5 0 1 0 15 0 a7.5 7.5 0 1 0 -15 0zM697.48 108.89 a7.5 7.5 0 1 0 15 0 a7.5 7.5 0 1 0 -15 0zM697.48 183.89 a7.5 7.5 0 1 0 15 0 a7.5 7.5 0 1 0 -15 0zM632.52 221.39 a7.5 7.5 0 1 0 15 0 a7.5 7.5 0 1 0 -15 0zM632.52 296.39 a7.5 7.5 0 1 0 15 0 a7.5 7.5 0 1 0 -15 0zM697.48 333.89 a7.5 7.5 0 1 0 15 0 a7.5 7.5 0 1 0 -15 0zM697.48 408.89 a7.5 7.5 0 1 0 15 0 a7.5 7.5 0 1 0 -15 0zM632.52 446.39 a7.5 7.5 0 1 0 15 0 a7.5 7.5 0 1 0 -15 0zM632.52 521.39 a7.5 7.5 0 1 0 15 0 a7.5 7.5 0 1 0 -15 0zM697.48 558.89 a7.5 7.5 0 1 0 15 0 a7.5 7.5 0 1 0 -15 0zM697.48 633.89 a7.5 7.5 0 1 0 15 0 a7.5 7.5 0 1 0 -15 0zM632.52 671.39 a7.5 7.5 0 1 0 15 0 a7.5 7.5 0 1 0 -15 0zM632.52 746.39 a7.5 7.5 0 1 0 15 0 a7.5 7.5 0 1 0 -15 0zM697.48 783.89 a7.5 7.5 0 1 0 15 0 a7.5 7.5 0 1 0 -15 0zM697.48 858.89 a7.5 7.5 0 1 0 15 0 a7.5 7.5 0 1 0 -15 0zM632.52 896.39 a7.5 7.5 0 1 0 15 0 a7.5 7.5 0 1 0 -15 0zM632.52 1196.39 a7.5 7.5 0 1 0 15 0 a7.5 7.5 0 1 0 -15 0zM697.48 1233.89 a7.5 7.5 0 1 0 15 0 a7.5 7.5 0 1 0 -15 0zM697.48 1308.89 a7.5 7.5 0 1 0 15 0 a7.5 7.5 0 1 0 -15 0zM632.52 1346.39 a7.5 7.5 0 1 0 15 0 a7.5 7.5 0 1 0 -15 0zM567.57 1308.89 a7.5 7.5 0 1 0 15 0 a7.5 7.5 0 1 0 -15 0zM567.57 1233.89 a7.5 7.5 0 1 0 15 0 a7.5 7.5 0 1 0 -15 0zM697.48 -41.11 a7.5 7.5 0 1 0 15 0 a7.5 7.5 0 1 0 -15 0zM762.43 -3.61 a7.5 7.5 0 1 0 15 0 a7.5 7.5 0 1 0 -15 0zM762.43 71.39 a7.5 7.5 0 1 0 15 0 a7.5 7.5 0 1 0 -15 0zM762.43 296.39 a7.5 7.5 0 1 0 15 0 a7.5 7.5 0 1 0 -15 0zM827.38 333.89 a7.5 7.5 0 1 0 15 0 a7.5 7.5 0 1 0 -15 0zM827.38 408.89 a7.5 7.5 0 1 0 15 0 a7.5 7.5 0 1 0 -15 0zM762.43 446.39 a7.5 7.5 0 1 0 15 0 a7.5 7.5 0 1 0 -15 0zM762.43 521.39 a7.5 7.5 0 1 0 15 0 a7.5 7.5 0 1 0 -15 0zM827.38 558.89 a7.5 7.5 0 1 0 15 0 a7.5 7.5 0 1 0 -15 0zM827.38 633.89 a7.5 7.5 0 1 0 15 0 a7.5 7.5 0 1 0 -15 0zM762.43 671.39 a7.5 7.5 0 1 0 15 0 a7.5 7.5 0 1 0 -15 0zM762.43 746.39 a7.5 7.5 0 1 0 15 0 a7.5 7.5 0 1 0 -15 0zM827.38 783.89 a7.5 7.5 0 1 0 15 0 a7.5 7.5 0 1 0 -15 0zM827.38 858.89 a7.5 7.5 0 1 0 15 0 a7.5 7.5 0 1 0 -15 0zM762.43 896.39 a7.5 7.5 0 1 0 15 0 a7.5 7.5 0 1 0 -15 0zM762.43 971.39 a7.5 7.5 0 1 0 15 0 a7.5 7.5 0 1 0 -15 0zM697.48 1008.89 a7.5 7.5 0 1 0 15 0 a7.5 7.5 0 1 0 -15 0zM632.52 971.39 a7.5 7.5 0 1 0 15 0 a7.5 7.5 0 1 0 -15 0zM697.48 1083.89 a7.5 7.5 0 1 0 15 0 a7.5 7.5 0 1 0 -15 0zM762.43 1121.39 a7.5 7.5 0 1 0 15 0 a7.5 7.5 0 1 0 -15 0zM762.43 1196.39 a7.5 7.5 0 1 0 15 0 a7.5 7.5 0 1 0 -15 0zM632.52 1121.39 a7.5 7.5 0 1 0 15 0 a7.5 7.5 0 1 0 -15 0zM827.38 1233.89 a7.5 7.5 0 1 0 15 0 a7.5 7.5 0 1 0 -15 0zM827.38 1308.89 a7.5 7.5 0 1 0 15 0 a7.5 7.5 0 1 0 -15 0zM762.43 1346.39 a7.5 7.5 0 1 0 15 0 a7.5 7.5 0 1 0 -15 0zM892.34 446.39 a7.5 7.5 0 1 0 15 0 a7.5 7.5 0 1 0 -15 0zM892.34 521.39 a7.5 7.5 0 1 0 15 0 a7.5 7.5 0 1 0 -15 0zM957.29 558.89 a7.5 7.5 0 1 0 15 0 a7.5 7.5 0 1 0 -15 0zM957.29 633.89 a7.5 7.5 0 1 0 15 0 a7.5 7.5 0 1 0 -15 0zM892.34 671.39 a7.5 7.5 0 1 0 15 0 a7.5 7.5 0 1 0 -15 0zM892.34 746.39 a7.5 7.5 0 1 0 15 0 a7.5 7.5 0 1 0 -15 0zM957.29 783.89 a7.5 7.5 0 1 0 15 0 a7.5 7.5 0 1 0 -15 0zM957.29 858.89 a7.5 7.5 0 1 0 15 0 a7.5 7.5 0 1 0 -15 0zM892.34 896.39 a7.5 7.5 0 1 0 15 0 a7.5 7.5 0 1 0 -15 0zM892.34 971.39 a7.5 7.5 0 1 0 15 0 a7.5 7.5 0 1 0 -15 0zM827.38 1008.89 a7.5 7.5 0 1 0 15 0 a7.5 7.5 0 1 0 -15 0zM827.38 1083.89 a7.5 7.5 0 1 0 15 0 a7.5 7.5 0 1 0 -15 0zM892.34 1121.39 a7.5 7.5 0 1 0 15 0 a7.5 7.5 0 1 0 -15 0zM892.34 1196.39 a7.5 7.5 0 1 0 15 0 a7.5 7.5 0 1 0 -15 0zM957.29 1233.89 a7.5 7.5 0 1 0 15 0 a7.5 7.5 0 1 0 -15 0zM957.29 1308.89 a7.5 7.5 0 1 0 15 0 a7.5 7.5 0 1 0 -15 0zM892.34 1346.39 a7.5 7.5 0 1 0 15 0 a7.5 7.5 0 1 0 -15 0zM957.29 -41.11 a7.5 7.5 0 1 0 15 0 a7.5 7.5 0 1 0 -15 0zM1022.25 -3.61 a7.5 7.5 0 1 0 15 0 a7.5 7.5 0 1 0 -15 0zM1022.25 71.39 a7.5 7.5 0 1 0 15 0 a7.5 7.5 0 1 0 -15 0zM957.29 108.89 a7.5 7.5 0 1 0 15 0 a7.5 7.5 0 1 0 -15 0zM892.34 71.39 a7.5 7.5 0 1 0 15 0 a7.5 7.5 0 1 0 -15 0zM892.34 -3.61 a7.5 7.5 0 1 0 15 0 a7.5 7.5 0 1 0 -15 0zM1087.2 108.89 a7.5 7.5 0 1 0 15 0 a7.5 7.5 0 1 0 -15 0zM1087.2 183.89 a7.5 7.5 0 1 0 15 0 a7.5 7.5 0 1 0 -15 0zM1022.25 221.39 a7.5 7.5 0 1 0 15 0 a7.5 7.5 0 1 0 -15 0zM957.29 183.89 a7.5 7.5 0 1 0 15 0 a7.5 7.5 0 1 0 -15 0zM1022.25 671.39 a7.5 7.5 0 1 0 15 0 a7.5 7.5 0 1 0 -15 0zM1022.25 746.39 a7.5 7.5 0 1 0 15 0 a7.5 7.5 0 1 0 -15 0zM1022.25 971.39 a7.5 7.5 0 1 0 15 0 a7.5 7.5 0 1 0 -15 0zM1087.2 1008.89 a7.5 7.5 0 1 0 15 0 a7.5 7.5 0 1 0 -15 0zM1087.2 1083.89 a7.5 7.5 0 1 0 15 0 a7.5 7.5 0 1 0 -15 0zM1022.25 1121.39 a7.5 7.5 0 1 0 15 0 a7.5 7.5 0 1 0 -15 0zM957.29 1083.89 a7.5 7.5 0 1 0 15 0 a7.5 7.5 0 1 0 -15 0zM957.29 1008.89 a7.5 7.5 0 1 0 15 0 a7.5 7.5 0 1 0 -15 0zM1152.15 221.39 a7.5 7.5 0 1 0 15 0 a7.5 7.5 0 1 0 -15 0zM1152.15 296.39 a7.5 7.5 0 1 0 15 0 a7.5 7.5 0 1 0 -15 0zM1087.2 333.89 a7.5 7.5 0 1 0 15 0 a7.5 7.5 0 1 0 -15 0zM1022.25 296.39 a7.5 7.5 0 1 0 15 0 a7.5 7.5 0 1 0 -15 0zM1217.11 333.89 a7.5 7.5 0 1 0 15 0 a7.5 7.5 0 1 0 -15 0zM1217.11 408.89 a7.5 7.5 0 1 0 15 0 a7.5 7.5 0 1 0 -15 0zM1152.15 446.39 a7.5 7.5 0 1 0 15 0 a7.5 7.5 0 1 0 -15 0zM1087.2 408.89 a7.5 7.5 0 1 0 15 0 a7.5 7.5 0 1 0 -15 0zM1152.15 521.39 a7.5 7.5 0 1 0 15 0 a7.5 7.5 0 1 0 -15 0zM1087.2 558.89 a7.5 7.5 0 1 0 15 0 a7.5 7.5 0 1 0 -15 0zM1022.25 521.39 a7.5 7.5 0 1 0 15 0 a7.5 7.5 0 1 0 -15 0zM1022.25 446.39 a7.5 7.5 0 1 0 15 0 a7.5 7.5 0 1 0 -15 0zM1217.11 558.89 a7.5 7.5 0 1 0 15 0 a7.5 7.5 0 1 0 -15 0zM1217.11 633.89 a7.5 7.5 0 1 0 15 0 a7.5 7.5 0 1 0 -15 0zM1152.15 671.39 a7.5 7.5 0 1 0 15 0 a7.5 7.5 0 1 0 -15 0zM1087.2 633.89 a7.5 7.5 0 1 0 15 0 a7.5 7.5 0 1 0 -15 0zM1152.15 746.39 a7.5 7.5 0 1 0 15 0 a7.5 7.5 0 1 0 -15 0zM1087.2 783.89 a7.5 7.5 0 1 0 15 0 a7.5 7.5 0 1 0 -15 0zM1217.11 783.89 a7.5 7.5 0 1 0 15 0 a7.5 7.5 0 1 0 -15 0zM1217.11 858.89 a7.5 7.5 0 1 0 15 0 a7.5 7.5 0 1 0 -15 0zM1152.15 896.39 a7.5 7.5 0 1 0 15 0 a7.5 7.5 0 1 0 -15 0zM1087.2 858.89 a7.5 7.5 0 1 0 15 0 a7.5 7.5 0 1 0 -15 0zM1152.15 1121.39 a7.5 7.5 0 1 0 15 0 a7.5 7.5 0 1 0 -15 0zM1152.15 1196.39 a7.5 7.5 0 1 0 15 0 a7.5 7.5 0 1 0 -15 0zM1087.2 1233.89 a7.5 7.5 0 1 0 15 0 a7.5 7.5 0 1 0 -15 0zM1022.25 1196.39 a7.5 7.5 0 1 0 15 0 a7.5 7.5 0 1 0 -15 0zM1217.11 -41.11 a7.5 7.5 0 1 0 15 0 a7.5 7.5 0 1 0 -15 0zM1282.06 -3.61 a7.5 7.5 0 1 0 15 0 a7.5 7.5 0 1 0 -15 0zM1282.06 71.39 a7.5 7.5 0 1 0 15 0 a7.5 7.5 0 1 0 -15 0zM1217.11 108.89 a7.5 7.5 0 1 0 15 0 a7.5 7.5 0 1 0 -15 0zM1152.15 71.39 a7.5 7.5 0 1 0 15 0 a7.5 7.5 0 1 0 -15 0zM1152.15 -3.61 a7.5 7.5 0 1 0 15 0 a7.5 7.5 0 1 0 -15 0zM1282.06 446.39 a7.5 7.5 0 1 0 15 0 a7.5 7.5 0 1 0 -15 0zM1282.06 521.39 a7.5 7.5 0 1 0 15 0 a7.5 7.5 0 1 0 -15 0zM1347.01 558.89 a7.5 7.5 0 1 0 15 0 a7.5 7.5 0 1 0 -15 0zM1347.01 633.89 a7.5 7.5 0 1 0 15 0 a7.5 7.5 0 1 0 -15 0zM1282.06 671.39 a7.5 7.5 0 1 0 15 0 a7.5 7.5 0 1 0 -15 0zM1282.06 746.39 a7.5 7.5 0 1 0 15 0 a7.5 7.5 0 1 0 -15 0zM1282.06 896.39 a7.5 7.5 0 1 0 15 0 a7.5 7.5 0 1 0 -15 0zM1282.06 971.39 a7.5 7.5 0 1 0 15 0 a7.5 7.5 0 1 0 -15 0zM1217.11 1008.89 a7.5 7.5 0 1 0 15 0 a7.5 7.5 0 1 0 -15 0zM1152.15 971.39 a7.5 7.5 0 1 0 15 0 a7.5 7.5 0 1 0 -15 0zM1347.01 1008.89 a7.5 7.5 0 1 0 15 0 a7.5 7.5 0 1 0 -15 0zM1347.01 1083.89 a7.5 7.5 0 1 0 15 0 a7.5 7.5 0 1 0 -15 0zM1282.06 1121.39 a7.5 7.5 0 1 0 15 0 a7.5 7.5 0 1 0 -15 0zM1217.11 1083.89 a7.5 7.5 0 1 0 15 0 a7.5 7.5 0 1 0 -15 0zM1282.06 1196.39 a7.5 7.5 0 1 0 15 0 a7.5 7.5 0 1 0 -15 0zM1347.01 1233.89 a7.5 7.5 0 1 0 15 0 a7.5 7.5 0 1 0 -15 0zM1347.01 1308.89 a7.5 7.5 0 1 0 15 0 a7.5 7.5 0 1 0 -15 0zM1282.06 1346.39 a7.5 7.5 0 1 0 15 0 a7.5 7.5 0 1 0 -15 0zM1217.11 1308.89 a7.5 7.5 0 1 0 15 0 a7.5 7.5 0 1 0 -15 0zM1217.11 1233.89 a7.5 7.5 0 1 0 15 0 a7.5 7.5 0 1 0 -15 0zM1411.97 71.39 a7.5 7.5 0 1 0 15 0 a7.5 7.5 0 1 0 -15 0zM1476.92 108.89 a7.5 7.5 0 1 0 15 0 a7.5 7.5 0 1 0 -15 0zM1476.92 183.89 a7.5 7.5 0 1 0 15 0 a7.5 7.5 0 1 0 -15 0zM1411.97 221.39 a7.5 7.5 0 1 0 15 0 a7.5 7.5 0 1 0 -15 0zM1347.02 183.89 a7.5 7.5 0 1 0 15 0 a7.5 7.5 0 1 0 -15 0zM1347.02 108.89 a7.5 7.5 0 1 0 15 0 a7.5 7.5 0 1 0 -15 0zM1411.97 296.39 a7.5 7.5 0 1 0 15 0 a7.5 7.5 0 1 0 -15 0zM1347.02 333.89 a7.5 7.5 0 1 0 15 0 a7.5 7.5 0 1 0 -15 0zM1282.06 296.39 a7.5 7.5 0 1 0 15 0 a7.5 7.5 0 1 0 -15 0zM1282.06 221.39 a7.5 7.5 0 1 0 15 0 a7.5 7.5 0 1 0 -15 0zM1476.92 333.89 a7.5 7.5 0 1 0 15 0 a7.5 7.5 0 1 0 -15 0zM1476.92 408.89 a7.5 7.5 0 1 0 15 0 a7.5 7.5 0 1 0 -15 0zM1411.97 446.39 a7.5 7.5 0 1 0 15 0 a7.5 7.5 0 1 0 -15 0zM1347.02 408.89 a7.5 7.5 0 1 0 15 0 a7.5 7.5 0 1 0 -15 0zM1411.97 521.39 a7.5 7.5 0 1 0 15 0 a7.5 7.5 0 1 0 -15 0zM1347.02 558.89 a7.5 7.5 0 1 0 15 0 a7.5 7.5 0 1 0 -15 0zM1347.02 633.89 a7.5 7.5 0 1 0 15 0 a7.5 7.5 0 1 0 -15 0zM1411.97 671.39 a7.5 7.5 0 1 0 15 0 a7.5 7.5 0 1 0 -15 0zM1411.97 746.39 a7.5 7.5 0 1 0 15 0 a7.5 7.5 0 1 0 -15 0zM1347.02 783.89 a7.5 7.5 0 1 0 15 0 a7.5 7.5 0 1 0 -15 0zM1476.92 783.89 a7.5 7.5 0 1 0 15 0 a7.5 7.5 0 1 0 -15 0zM1476.92 858.89 a7.5 7.5 0 1 0 15 0 a7.5 7.5 0 1 0 -15 0zM1411.97 896.39 a7.5 7.5 0 1 0 15 0 a7.5 7.5 0 1 0 -15 0zM1347.02 858.89 a7.5 7.5 0 1 0 15 0 a7.5 7.5 0 1 0 -15 0zM1411.97 971.39 a7.5 7.5 0 1 0 15 0 a7.5 7.5 0 1 0 -15 0zM1347.02 1008.89 a7.5 7.5 0 1 0 15 0 a7.5 7.5 0 1 0 -15 0zM1476.92 1008.89 a7.5 7.5 0 1 0 15 0 a7.5 7.5 0 1 0 -15 0zM1476.92 1083.89 a7.5 7.5 0 1 0 15 0 a7.5 7.5 0 1 0 -15 0zM1411.97 1121.39 a7.5 7.5 0 1 0 15 0 a7.5 7.5 0 1 0 -15 0zM1347.02 1083.89 a7.5 7.5 0 1 0 15 0 a7.5 7.5 0 1 0 -15 0zM1541.88 71.39 a7.5 7.5 0 1 0 15 0 a7.5 7.5 0 1 0 -15 0zM1606.83 108.89 a7.5 7.5 0 1 0 15 0 a7.5 7.5 0 1 0 -15 0zM1606.83 183.89 a7.5 7.5 0 1 0 15 0 a7.5 7.5 0 1 0 -15 0zM1541.88 221.39 a7.5 7.5 0 1 0 15 0 a7.5 7.5 0 1 0 -15 0zM1541.88 521.39 a7.5 7.5 0 1 0 15 0 a7.5 7.5 0 1 0 -15 0zM1606.83 558.89 a7.5 7.5 0 1 0 15 0 a7.5 7.5 0 1 0 -15 0zM1606.83 633.89 a7.5 7.5 0 1 0 15 0 a7.5 7.5 0 1 0 -15 0zM1541.88 671.39 a7.5 7.5 0 1 0 15 0 a7.5 7.5 0 1 0 -15 0zM1476.92 633.89 a7.5 7.5 0 1 0 15 0 a7.5 7.5 0 1 0 -15 0zM1476.92 558.89 a7.5 7.5 0 1 0 15 0 a7.5 7.5 0 1 0 -15 0zM1541.88 746.39 a7.5 7.5 0 1 0 15 0 a7.5 7.5 0 1 0 -15 0zM1606.83 783.89 a7.5 7.5 0 1 0 15 0 a7.5 7.5 0 1 0 -15 0zM1606.83 858.89 a7.5 7.5 0 1 0 15 0 a7.5 7.5 0 1 0 -15 0zM1541.88 896.39 a7.5 7.5 0 1 0 15 0 a7.5 7.5 0 1 0 -15 0zM1541.88 971.39 a7.5 7.5 0 1 0 15 0 a7.5 7.5 0 1 0 -15 0zM1606.83 1008.89 a7.5 7.5 0 1 0 15 0 a7.5 7.5 0 1 0 -15 0zM1606.83 1083.89 a7.5 7.5 0 1 0 15 0 a7.5 7.5 0 1 0 -15 0zM1541.88 1121.39 a7.5 7.5 0 1 0 15 0 a7.5 7.5 0 1 0 -15 0zM1541.88 1196.39 a7.5 7.5 0 1 0 15 0 a7.5 7.5 0 1 0 -15 0zM1606.83 1233.89 a7.5 7.5 0 1 0 15 0 a7.5 7.5 0 1 0 -15 0zM1606.83 1308.89 a7.5 7.5 0 1 0 15 0 a7.5 7.5 0 1 0 -15 0zM1541.88 1346.39 a7.5 7.5 0 1 0 15 0 a7.5 7.5 0 1 0 -15 0zM1476.92 1308.89 a7.5 7.5 0 1 0 15 0 a7.5 7.5 0 1 0 -15 0zM1476.92 1233.89 a7.5 7.5 0 1 0 15 0 a7.5 7.5 0 1 0 -15 0zM1606.83 -41.11 a7.5 7.5 0 1 0 15 0 a7.5 7.5 0 1 0 -15 0zM1671.78 -3.61 a7.5 7.5 0 1 0 15 0 a7.5 7.5 0 1 0 -15 0zM1671.78 71.39 a7.5 7.5 0 1 0 15 0 a7.5 7.5 0 1 0 -15 0zM1541.88 -3.61 a7.5 7.5 0 1 0 15 0 a7.5 7.5 0 1 0 -15 0zM1606.83 408.89 a7.5 7.5 0 1 0 15 0 a7.5 7.5 0 1 0 -15 0zM1671.78 446.39 a7.5 7.5 0 1 0 15 0 a7.5 7.5 0 1 0 -15 0zM1671.78 521.39 a7.5 7.5 0 1 0 15 0 a7.5 7.5 0 1 0 -15 0zM1541.88 446.39 a7.5 7.5 0 1 0 15 0 a7.5 7.5 0 1 0 -15 0zM1671.78 671.39 a7.5 7.5 0 1 0 15 0 a7.5 7.5 0 1 0 -15 0zM1671.78 746.39 a7.5 7.5 0 1 0 15 0 a7.5 7.5 0 1 0 -15 0zM1671.78 971.39 a7.5 7.5 0 1 0 15 0 a7.5 7.5 0 1 0 -15 0zM1736.74 1008.89 a7.5 7.5 0 1 0 15 0 a7.5 7.5 0 1 0 -15 0zM1736.74 1083.89 a7.5 7.5 0 1 0 15 0 a7.5 7.5 0 1 0 -15 0zM1671.78 1121.39 a7.5 7.5 0 1 0 15 0 a7.5 7.5 0 1 0 -15 0zM1671.78 1196.39 a7.5 7.5 0 1 0 15 0 a7.5 7.5 0 1 0 -15 0zM1736.74 183.89 a7.5 7.5 0 1 0 15 0 a7.5 7.5 0 1 0 -15 0zM1801.69 221.39 a7.5 7.5 0 1 0 15 0 a7.5 7.5 0 1 0 -15 0zM1801.69 296.39 a7.5 7.5 0 1 0 15 0 a7.5 7.5 0 1 0 -15 0zM1736.74 333.89 a7.5 7.5 0 1 0 15 0 a7.5 7.5 0 1 0 -15 0zM1671.78 296.39 a7.5 7.5 0 1 0 15 0 a7.5 7.5 0 1 0 -15 0zM1671.78 221.39 a7.5 7.5 0 1 0 15 0 a7.5 7.5 0 1 0 -15 0zM1866.64 333.89 a7.5 7.5 0 1 0 15 0 a7.5 7.5 0 1 0 -15 0zM1866.64 408.89 a7.5 7.5 0 1 0 15 0 a7.5 7.5 0 1 0 -15 0zM1801.69 446.39 a7.5 7.5 0 1 0 15 0 a7.5 7.5 0 1 0 -15 0zM1736.74 408.89 a7.5 7.5 0 1 0 15 0 a7.5 7.5 0 1 0 -15 0zM1801.69 521.39 a7.5 7.5 0 1 0 15 0 a7.5 7.5 0 1 0 -15 0zM1866.64 558.89 a7.5 7.5 0 1 0 15 0 a7.5 7.5 0 1 0 -15 0zM1866.64 633.89 a7.5 7.5 0 1 0 15 0 a7.5 7.5 0 1 0 -15 0zM1801.69 671.39 a7.5 7.5 0 1 0 15 0 a7.5 7.5 0 1 0 -15 0zM1736.74 633.89 a7.5 7.5 0 1 0 15 0 a7.5 7.5 0 1 0 -15 0zM1736.74 558.89 a7.5 7.5 0 1 0 15 0 a7.5 7.5 0 1 0 -15 0zM1801.69 746.39 a7.5 7.5 0 1 0 15 0 a7.5 7.5 0 1 0 -15 0zM1736.74 783.89 a7.5 7.5 0 1 0 15 0 a7.5 7.5 0 1 0 -15 0zM1736.74 858.89 a7.5 7.5 0 1 0 15 0 a7.5 7.5 0 1 0 -15 0zM1801.69 896.39 a7.5 7.5 0 1 0 15 0 a7.5 7.5 0 1 0 -15 0zM1801.69 971.39 a7.5 7.5 0 1 0 15 0 a7.5 7.5 0 1 0 -15 0zM1671.78 896.39 a7.5 7.5 0 1 0 15 0 a7.5 7.5 0 1 0 -15 0z" fill="#03305d"></path>
        <path d="M68.86 191.77L112.17 216.77L112.17 266.77L68.86 291.77L25.56 266.77L25.56 216.77zM68.86 791.77L112.17 816.77L112.17 866.77L68.86 891.77L25.56 866.77L25.56 816.77zM25.56 1166.77L68.86 1191.77L68.86 1241.77L25.56 1266.77L-17.74 1241.77L-17.74 1191.77zM155.47 191.77L198.77 216.77L198.77 266.77L155.47 291.77L112.17 266.77L112.17 216.77zM155.47 641.77L198.77 666.77L198.77 716.77L155.47 741.77L112.17 716.77L112.17 666.77zM242.07 341.77L285.38 366.77L285.38 416.77L242.07 441.77L198.77 416.77L198.77 366.77zM198.77 866.77L242.07 891.77L242.07 941.77L198.77 966.77L155.47 941.77L155.47 891.77zM242.07 941.77L285.38 966.77L285.38 1016.77L242.07 1041.77L198.77 1016.77L198.77 966.77zM242.07 1091.77L285.38 1116.77L285.38 1166.77L242.07 1191.77L198.77 1166.77L198.77 1116.77zM198.77 1166.77L242.07 1191.77L242.07 1241.77L198.77 1266.77L155.47 1241.77L155.47 1191.77zM328.68 1091.77L371.98 1116.77L371.98 1166.77L328.68 1191.77L285.38 1166.77L285.38 1116.77zM415.28 191.77L458.59 216.77L458.59 266.77L415.28 291.77L371.98 266.77L371.98 216.77zM415.28 341.77L458.59 366.77L458.59 416.77L415.28 441.77L371.98 416.77L371.98 366.77zM415.28 641.77L458.59 666.77L458.59 716.77L415.28 741.77L371.98 716.77L371.98 666.77zM415.28 941.77L458.59 966.77L458.59 1016.77L415.28 1041.77L371.98 1016.77L371.98 966.77zM371.98 1016.77L415.28 1041.77L415.28 1091.77L371.98 1116.77L328.68 1091.77L328.68 1041.77zM371.98 1166.77L415.28 1191.77L415.28 1241.77L371.98 1266.77L328.68 1241.77L328.68 1191.77zM458.59 116.77L501.89 141.77L501.89 191.77L458.59 216.77L415.28 191.77L415.28 141.77zM501.89 191.77L545.19 216.77L545.19 266.77L501.89 291.77L458.59 266.77L458.59 216.77zM458.59 866.77L501.89 891.77L501.89 941.77L458.59 966.77L415.28 941.77L415.28 891.77zM458.59 1166.77L501.89 1191.77L501.89 1241.77L458.59 1266.77L415.28 1241.77L415.28 1191.77zM588.49 41.77L631.79 66.77L631.79 116.77L588.49 141.77L545.19 116.77L545.19 66.77zM545.19 866.77L588.49 891.77L588.49 941.77L545.19 966.77L501.89 941.77L501.89 891.77zM545.19 1166.77L588.49 1191.77L588.49 1241.77L545.19 1266.77L501.89 1241.77L501.89 1191.77zM631.79 -33.23L675.1 -8.23L675.1 41.77L631.79 66.77L588.49 41.77L588.49 -8.23zM675.1 41.77L718.4 66.77L718.4 116.77L675.1 141.77L631.79 116.77L631.79 66.77zM675.1 641.77L718.4 666.77L718.4 716.77L675.1 741.77L631.79 716.77L631.79 666.77zM631.79 716.77L675.1 741.77L675.1 791.77L631.79 816.77L588.49 791.77L588.49 741.77zM631.79 866.77L675.1 891.77L675.1 941.77L631.79 966.77L588.49 941.77L588.49 891.77zM631.79 1166.77L675.1 1191.77L675.1 1241.77L631.79 1266.77L588.49 1241.77L588.49 1191.77zM718.4 -33.23L761.7 -8.23L761.7 41.77L718.4 66.77L675.1 41.77L675.1 -8.23zM718.4 266.77L761.7 291.77L761.7 341.77L718.4 366.77L675.1 341.77L675.1 291.77zM718.4 416.77L761.7 441.77L761.7 491.77L718.4 516.77L675.1 491.77L675.1 441.77zM761.7 641.77L805 666.77L805 716.77L761.7 741.77L718.4 716.77L718.4 666.77zM718.4 866.77L761.7 891.77L761.7 941.77L718.4 966.77L675.1 941.77L675.1 891.77zM761.7 941.77L805 966.77L805 1016.77L761.7 1041.77L718.4 1016.77L718.4 966.77zM848.31 191.77L891.61 216.77L891.61 266.77L848.31 291.77L805 266.77L805 216.77zM805 266.77L848.31 291.77L848.31 341.77L805 366.77L761.7 341.77L761.7 291.77zM805 416.77L848.31 441.77L848.31 491.77L805 516.77L761.7 491.77L761.7 441.77zM805 1016.77L848.31 1041.77L848.31 1091.77L805 1116.77L761.7 1091.77L761.7 1041.77zM805 1166.77L848.31 1191.77L848.31 1241.77L805 1266.77L761.7 1241.77L761.7 1191.77zM934.91 191.77L978.22 216.77L978.22 266.77L934.91 291.77L891.61 266.77L891.61 216.77zM891.61 416.77L934.91 441.77L934.91 491.77L891.61 516.77L848.31 491.77L848.31 441.77zM934.91 791.77L978.22 816.77L978.22 866.77L934.91 891.77L891.61 866.77L891.61 816.77zM891.61 866.77L934.91 891.77L934.91 941.77L891.61 966.77L848.31 941.77L848.31 891.77zM1021.52 191.77L1064.82 216.77L1064.82 266.77L1021.52 291.77L978.22 266.77L978.22 216.77zM1021.52 641.77L1064.82 666.77L1064.82 716.77L1021.52 741.77L978.22 716.77L978.22 666.77zM1108.12 191.77L1151.42 216.77L1151.42 266.77L1108.12 291.77L1064.82 266.77L1064.82 216.77zM1064.82 266.77L1108.12 291.77L1108.12 341.77L1064.82 366.77L1021.52 341.77L1021.52 291.77zM1064.82 416.77L1108.12 441.77L1108.12 491.77L1064.82 516.77L1021.52 491.77L1021.52 441.77zM1064.82 566.77L1108.12 591.77L1108.12 641.77L1064.82 666.77L1021.52 641.77L1021.52 591.77zM1151.42 -33.23L1194.73 -8.23L1194.73 41.77L1151.42 66.77L1108.12 41.77L1108.12 -8.23zM1151.42 116.77L1194.73 141.77L1194.73 191.77L1151.42 216.77L1108.12 191.77L1108.12 141.77zM1194.73 191.77L1238.03 216.77L1238.03 266.77L1194.73 291.77L1151.42 266.77L1151.42 216.77zM1151.42 266.77L1194.73 291.77L1194.73 341.77L1151.42 366.77L1108.12 341.77L1108.12 291.77zM1151.42 416.77L1194.73 441.77L1194.73 491.77L1151.42 516.77L1108.12 491.77L1108.12 441.77zM1194.73 641.77L1238.03 666.77L1238.03 716.77L1194.73 741.77L1151.42 716.77L1151.42 666.77zM1151.42 716.77L1194.73 741.77L1194.73 791.77L1151.42 816.77L1108.12 791.77L1108.12 741.77zM1151.42 866.77L1194.73 891.77L1194.73 941.77L1151.42 966.77L1108.12 941.77L1108.12 891.77zM1194.73 941.77L1238.03 966.77L1238.03 1016.77L1194.73 1041.77L1151.42 1016.77L1151.42 966.77zM1281.33 41.77L1324.63 66.77L1324.63 116.77L1281.33 141.77L1238.03 116.77L1238.03 66.77zM1281.33 341.77L1324.63 366.77L1324.63 416.77L1281.33 441.77L1238.03 416.77L1238.03 366.77zM1238.03 416.77L1281.33 441.77L1281.33 491.77L1238.03 516.77L1194.73 491.77L1194.73 441.77zM1281.33 491.77L1324.63 516.77L1324.63 566.77L1281.33 591.77L1238.03 566.77L1238.03 516.77zM1281.33 791.77L1324.63 816.77L1324.63 866.77L1281.33 891.77L1238.03 866.77L1238.03 816.77zM1238.03 866.77L1281.33 891.77L1281.33 941.77L1238.03 966.77L1194.73 941.77L1194.73 891.77zM1281.33 941.77L1324.63 966.77L1324.63 1016.77L1281.33 1041.77L1238.03 1016.77L1238.03 966.77zM1238.03 1166.77L1281.33 1191.77L1281.33 1241.77L1238.03 1266.77L1194.73 1241.77L1194.73 1191.77zM1367.94 341.77L1411.24 366.77L1411.24 416.77L1367.94 441.77L1324.63 416.77L1324.63 366.77zM1324.63 416.77L1367.94 441.77L1367.94 491.77L1324.63 516.77L1281.33 491.77L1281.33 441.77zM1324.63 866.77L1367.94 891.77L1367.94 941.77L1324.63 966.77L1281.33 941.77L1281.33 891.77zM1367.94 1091.77L1411.24 1116.77L1411.24 1166.77L1367.94 1191.77L1324.63 1166.77L1324.63 1116.77zM1454.54 41.77L1497.85 66.77L1497.85 116.77L1454.54 141.77L1411.24 116.77L1411.24 66.77zM1411.24 116.77L1454.54 141.77L1454.54 191.77L1411.24 216.77L1367.94 191.77L1367.94 141.77zM1454.54 191.77L1497.85 216.77L1497.85 266.77L1454.54 291.77L1411.24 266.77L1411.24 216.77zM1411.24 266.77L1454.54 291.77L1454.54 341.77L1411.24 366.77L1367.94 341.77L1367.94 291.77zM1454.54 341.77L1497.85 366.77L1497.85 416.77L1454.54 441.77L1411.24 416.77L1411.24 366.77zM1411.24 416.77L1454.54 441.77L1454.54 491.77L1411.24 516.77L1367.94 491.77L1367.94 441.77zM1454.54 641.77L1497.85 666.77L1497.85 716.77L1454.54 741.77L1411.24 716.77L1411.24 666.77zM1497.85 116.77L1541.15 141.77L1541.15 191.77L1497.85 216.77L1454.54 191.77L1454.54 141.77zM1497.85 1016.77L1541.15 1041.77L1541.15 1091.77L1497.85 1116.77L1454.54 1091.77L1454.54 1041.77zM1541.15 1091.77L1584.45 1116.77L1584.45 1166.77L1541.15 1191.77L1497.85 1166.77L1497.85 1116.77zM1497.85 1166.77L1541.15 1191.77L1541.15 1241.77L1497.85 1266.77L1454.54 1241.77L1454.54 1191.77zM1584.45 -33.23L1627.75 -8.23L1627.75 41.77L1584.45 66.77L1541.15 41.77L1541.15 -8.23zM1627.75 491.77L1671.06 516.77L1671.06 566.77L1627.75 591.77L1584.45 566.77L1584.45 516.77zM1584.45 566.77L1627.75 591.77L1627.75 641.77L1584.45 666.77L1541.15 641.77L1541.15 591.77zM1627.75 791.77L1671.06 816.77L1671.06 866.77L1627.75 891.77L1584.45 866.77L1584.45 816.77zM1627.75 1091.77L1671.06 1116.77L1671.06 1166.77L1627.75 1191.77L1584.45 1166.77L1584.45 1116.77zM1714.36 191.77L1757.66 216.77L1757.66 266.77L1714.36 291.77L1671.06 266.77L1671.06 216.77zM1671.06 266.77L1714.36 291.77L1714.36 341.77L1671.06 366.77L1627.75 341.77L1627.75 291.77zM1714.36 341.77L1757.66 366.77L1757.66 416.77L1714.36 441.77L1671.06 416.77L1671.06 366.77zM1671.06 416.77L1714.36 441.77L1714.36 491.77L1671.06 516.77L1627.75 491.77L1627.75 441.77zM1714.36 491.77L1757.66 516.77L1757.66 566.77L1714.36 591.77L1671.06 566.77L1671.06 516.77zM1714.36 641.77L1757.66 666.77L1757.66 716.77L1714.36 741.77L1671.06 716.77L1671.06 666.77zM1714.36 791.77L1757.66 816.77L1757.66 866.77L1714.36 891.77L1671.06 866.77L1671.06 816.77zM1671.06 866.77L1714.36 891.77L1714.36 941.77L1671.06 966.77L1627.75 941.77L1627.75 891.77zM1714.36 941.77L1757.66 966.77L1757.66 1016.77L1714.36 1041.77L1671.06 1016.77L1671.06 966.77zM1714.36 1091.77L1757.66 1116.77L1757.66 1166.77L1714.36 1191.77L1671.06 1166.77L1671.06 1116.77zM1671.06 1166.77L1714.36 1191.77L1714.36 1241.77L1671.06 1266.77L1627.75 1241.77L1627.75 1191.77zM1800.96 41.77L1844.27 66.77L1844.27 116.77L1800.96 141.77L1757.66 116.77L1757.66 66.77zM1800.96 191.77L1844.27 216.77L1844.27 266.77L1800.96 291.77L1757.66 266.77L1757.66 216.77zM1800.96 491.77L1844.27 516.77L1844.27 566.77L1800.96 591.77L1757.66 566.77L1757.66 516.77z" stroke="rgba(6, 80, 156, 0.93)" stroke-width="2"></path>
    </g>
    <defs>
        <mask id="SvgjsMask1057">
            <rect width="1800" height="1200" fill="#ffffff"></rect>
        </mask>
    </defs>
</svg>